<svg width="45" height="30" viewBox="0 0 45 30" fill="none" xmlns="http://www.w3.org/2000/svg">
<path d="M0.838001 30V0.767998H13.06C15.104 0.767998 16.868 1.146 18.352 1.902C20.06 2.77 21.418 4.016 22.426 5.64C23.434 7.236 23.938 9 23.938 10.932C23.938 12.864 23.434 14.642 22.426 16.266C21.446 17.89 20.102 19.136 18.394 20.004C16.938 20.76 15.16 21.138 13.06 21.138H8.482V30H0.838001ZM39.1098 1.608C40.4258 2.28 41.4338 3.204 42.1338 4.38C42.8618 5.556 43.2258 6.872 43.2258 8.328C43.2258 9.7 42.8618 10.974 42.1338 12.15C41.4338 13.298 40.4538 14.208 39.1938 14.88C40.6778 15.384 41.9098 16.308 42.8898 17.652C43.8698 18.996 44.3598 20.48 44.3598 22.104C44.3598 23.56 43.9958 24.904 43.2678 26.136C42.5398 27.368 41.5738 28.32 40.3698 28.992C39.7538 29.328 39.0678 29.58 38.3118 29.748C37.5558 29.916 36.5478 30 35.2878 30H23.0238V0.767998H34.6998C36.5478 0.767998 38.0178 1.048 39.1098 1.608ZM38.4378 13.662C39.4458 13.158 40.2438 12.43 40.8318 11.478C41.4198 10.526 41.7138 9.476 41.7138 8.328C41.7138 7.04 41.3778 5.92 40.7058 4.968C40.0338 3.988 39.1798 3.274 38.1438 2.826C37.3598 2.49 36.0438 2.322 34.1958 2.322H24.5358V14.334H34.9518C36.4078 14.334 37.5698 14.11 38.4378 13.662ZM39.4458 27.816C40.4818 27.284 41.3078 26.514 41.9238 25.506C42.5398 24.47 42.8478 23.35 42.8478 22.146C42.8478 20.886 42.5258 19.752 41.8818 18.744C41.2378 17.708 40.3698 16.938 39.2778 16.434C38.4378 16.042 37.3038 15.846 35.8758 15.846H24.5358V28.488H35.3298C36.3938 28.488 37.2338 28.432 37.8498 28.32C38.4658 28.208 38.9978 28.04 39.4458 27.816Z" fill="white"/>
</svg>
